<svg width="1000" height="1000" xmlns="http://www.w3.org/2000/svg">
 <g>
  <title>Layer 1</title>
  <rect stroke="null" width="565" height="1000" fill="none" id="svg_1" y="0" x="370.00001"/>
  <g opacity="0.3" id="svg_2">
   <rect width="42" height="246.5" x="430.341" y="388.822" fill="#2d2d2d" stroke="#2d2d2d" stroke-linecap="round" stroke-linejoin="round" stroke-miterlimit="10" stroke-width="8" id="svg_3"/>
   <rect width="53.333" height="30" x="424.675" y="635.161" fill="#2d2d2d" stroke="#2d2d2d" stroke-linecap="round" stroke-linejoin="round" stroke-miterlimit="10" stroke-width="8" id="svg_4"/>
   <path fill="#2d2d2d" stroke="#2d2d2d" stroke-linecap="round" stroke-linejoin="round" stroke-miterlimit="10" stroke-width="8" d="m463.671,691l-24.658,0c-4.789,0 -8.671,-3.882 -8.671,-8.671l0,-17.168l42,0l0,17.168c-0.001,4.789 -3.883,8.671 -8.671,8.671z" id="svg_5"/>
   <polygon fill="#2d2d2d" stroke="#2d2d2d" stroke-linecap="round" stroke-linejoin="round" stroke-miterlimit="10" stroke-width="8" points="472.341 388.822 430.341 388.822 451.341 322.333" id="svg_6"/>
  </g>
  <g opacity="0.3" id="svg_7">
   <rect width="37.333" height="212" x="564.893" y="482.499" fill="#2d2d2d" stroke="#2d2d2d" stroke-linecap="round" stroke-linejoin="round" stroke-miterlimit="10" stroke-width="8" id="svg_8"/>
   <rect width="48" height="143" x="559.56" y="339.499" fill="#2d2d2d" stroke="#2d2d2d" stroke-linecap="round" stroke-linejoin="round" stroke-miterlimit="10" stroke-width="8" id="svg_9"/>
   <path fill="#2d2d2d" stroke="#2d2d2d" stroke-linecap="round" stroke-linejoin="round" stroke-miterlimit="10" stroke-width="8" d="m602.226,339.499l-37.333,0l0,-2.335c0,-10.309 8.357,-18.667 18.667,-18.667l0,0c10.309,0 18.667,8.357 18.667,18.667l0,2.335l-0.001,0z" id="svg_10"/>
   <line x1="545.712" x2="545.712" y1="361.871" y2="451.196" fill="#2d2d2d" stroke="#2d2d2d" stroke-linecap="round" stroke-linejoin="round" stroke-miterlimit="10" stroke-width="8" id="svg_11"/>
   <line x1="559.557" x2="545.712" y1="376.332" y2="376.332" fill="#2d2d2d" stroke="#2d2d2d" stroke-linecap="round" stroke-linejoin="round" stroke-miterlimit="10" stroke-width="8" id="svg_12"/>
   <path fill="#2d2d2d" stroke="#2d2d2d" stroke-linecap="round" stroke-linejoin="round" stroke-miterlimit="10" stroke-width="8" d="m597.81,694.499c0,7.87 -6.38,14.25 -14.25,14.25s-14.25,-6.38 -14.25,-14.25l28.5,0z" id="svg_13"/>
  </g>
  <rect width="37.333" height="212" x="555.893" y="472.499" fill="#00b3c6" id="svg_14"/>
  <rect width="13.56" height="212" x="579.667" y="472.499" fill="#00b3c6" opacity="0.5" id="svg_15"/>
  <rect width="13.416" height="212" x="555.893" y="472.499" fill="#00b3c6" opacity="0.35" id="svg_16"/>
  <rect width="37.333" height="212" x="555.893" y="472.499" fill="none" stroke="#330e00" stroke-linecap="round" stroke-linejoin="round" stroke-miterlimit="10" stroke-width="8" id="svg_17"/>
  <rect width="48" height="143" x="550.56" y="329.499" fill="#565656" id="svg_18"/>
  <rect width="14.333" height="143" x="550.56" y="329.499" fill="#565656" opacity="0.27" id="svg_19"/>
  <rect width="14.333" height="143" x="583.56" y="329.499" fill="#565656" opacity="0.27" id="svg_20"/>
  <rect width="48" height="143" x="550.56" y="329.499" fill="none" stroke="#330e00" stroke-linecap="round" stroke-linejoin="round" stroke-miterlimit="10" stroke-width="8" id="svg_21"/>
  <path fill="#00b3c6" d="m593.226,329.499l-37.333,0l0,-2.335c0,-10.309 8.357,-18.667 18.667,-18.667l0,0c10.309,0 18.667,8.357 18.667,18.667l0,2.335l-0.001,0z" id="svg_22"/>
  <path fill="none" stroke="#330e00" stroke-linecap="round" stroke-linejoin="round" stroke-miterlimit="10" stroke-width="8" d="m593.226,329.499l-37.333,0l0,-2.335c0,-10.309 8.357,-18.667 18.667,-18.667l0,0c10.309,0 18.667,8.357 18.667,18.667l0,2.335l-0.001,0z" id="svg_23"/>
  <line x1="536.712" x2="536.712" y1="351.871" y2="441.196" fill="none" stroke="#330e00" stroke-linecap="round" stroke-linejoin="round" stroke-miterlimit="10" stroke-width="8" id="svg_24"/>
  <line x1="550.557" x2="536.712" y1="366.332" y2="366.332" fill="none" stroke="#330e00" stroke-linecap="round" stroke-linejoin="round" stroke-miterlimit="10" stroke-width="8" id="svg_25"/>
  <path fill="#565656" d="m588.81,684.499c0,7.87 -6.38,14.25 -14.25,14.25s-14.25,-6.38 -14.25,-14.25l28.5,0z" id="svg_26"/>
  <path fill="none" stroke="#330e00" stroke-linecap="round" stroke-linejoin="round" stroke-miterlimit="10" stroke-width="8" d="m588.81,684.499c0,7.87 -6.38,14.25 -14.25,14.25s-14.25,-6.38 -14.25,-14.25l28.5,0z" id="svg_27"/>
  <g id="svg_28">
   <rect width="42" height="246.5" x="419.341" y="376.822" fill="#ff1f1f" id="svg_29"/>
   <rect width="42" height="246.5" x="419.341" y="376.822" fill="none" stroke="#330e00" stroke-linecap="round" stroke-linejoin="round" stroke-miterlimit="10" stroke-width="8" id="svg_30"/>
   <rect width="14.642" height="246.5" x="433.02" y="376.822" fill="none" stroke="#330e00" stroke-linecap="round" stroke-linejoin="round" stroke-miterlimit="10" stroke-width="8" id="svg_31"/>
   <rect width="53.333" height="30" x="413.675" y="623.161" fill="#fdd2a7" id="svg_32"/>
   <rect width="15.667" height="30" x="451.341" y="623.161" fill="#fdd2a7" opacity="0.5" id="svg_33"/>
   <rect width="14.325" height="30" x="413.675" y="623.161" fill="#fdd2a7" id="svg_34"/>
   <rect width="53.333" height="30" x="413.675" y="623.161" fill="none" stroke="#330e00" stroke-linecap="round" stroke-linejoin="round" stroke-miterlimit="10" stroke-width="8" id="svg_35"/>
   <path fill="#3babff" d="m452.671,679l-24.658,0c-4.789,0 -8.671,-3.882 -8.671,-8.671l0,-17.168l42,0l0,17.168c-0.001,4.789 -3.883,8.671 -8.671,8.671z" id="svg_36"/>
   <path fill="none" stroke="#330e00" stroke-linecap="round" stroke-linejoin="round" stroke-miterlimit="10" stroke-width="8" d="m452.671,679l-24.658,0c-4.789,0 -8.671,-3.882 -8.671,-8.671l0,-17.168l42,0l0,17.168c-0.001,4.789 -3.883,8.671 -8.671,8.671z" id="svg_37"/>
   <polygon fill="#fdd2a7" points="461.341 376.822 419.341 376.822 440.341 310.333" id="svg_38"/>
   <polygon fill="none" stroke="#330e00" stroke-linecap="round" stroke-linejoin="round" stroke-miterlimit="10" stroke-width="8" points="461.341 376.822 419.341 376.822 440.341 310.333" id="svg_39"/>
   <polygon fill="#330e00" points="440.341 310.333 431.445 338.499 449.237 338.499" id="svg_40"/>
  </g>
  <line x1="569.667" x2="569.667" y1="585.499" y2="666.333" fill="none" stroke="#330e00" stroke-linecap="round" stroke-linejoin="round" stroke-miterlimit="10" stroke-width="6" id="svg_58"/>
  <g id="svg_59">
   <rect width="37.333" height="212" x="555.893" y="472.499" fill="none" stroke="#330e00" stroke-linecap="round" stroke-linejoin="round" stroke-miterlimit="10" stroke-width="8" id="svg_60"/>
   <rect width="48" height="143" x="550.56" y="329.499" fill="none" stroke="#330e00" stroke-linecap="round" stroke-linejoin="round" stroke-miterlimit="10" stroke-width="8" id="svg_61"/>
   <path fill="none" stroke="#330e00" stroke-linecap="round" stroke-linejoin="round" stroke-miterlimit="10" stroke-width="8" d="m593.226,329.499l-37.333,0l0,-2.335c0,-10.309 8.357,-18.667 18.667,-18.667l0,0c10.309,0 18.667,8.357 18.667,18.667l0,2.335l-0.001,0z" id="svg_62"/>
   <line x1="536.712" x2="536.712" y1="351.871" y2="441.196" fill="none" stroke="#330e00" stroke-linecap="round" stroke-linejoin="round" stroke-miterlimit="10" stroke-width="8" id="svg_63"/>
   <line x1="550.557" x2="536.712" y1="366.332" y2="366.332" fill="none" stroke="#330e00" stroke-linecap="round" stroke-linejoin="round" stroke-miterlimit="10" stroke-width="8" id="svg_64"/>
   <path fill="none" stroke="#330e00" stroke-linecap="round" stroke-linejoin="round" stroke-miterlimit="10" stroke-width="8" d="m588.81,684.499c0,7.87 -6.38,14.25 -14.25,14.25s-14.25,-6.38 -14.25,-14.25l28.5,0z" id="svg_65"/>
  </g>
  <g id="svg_66">
   <g opacity="0.3" id="svg_67">
    <path fill="#2d2d2d" stroke="#2d2d2d" stroke-linecap="round" stroke-linejoin="round" stroke-miterlimit="10" stroke-width="8" d="m722.964,681.36l-48.541,-35.267c-8.043,-5.843 -9.825,-17.1 -3.982,-25.142l159.878,-220.053c5.843,-8.043 17.1,-9.825 25.142,-3.982l48.541,35.267c8.043,5.843 9.825,17.1 3.982,25.142l-159.877,220.053c-5.844,8.042 -17.1,9.825 -25.143,3.982z" id="svg_68"/>
    <path fill="#2d2d2d" stroke="#2d2d2d" stroke-linecap="round" stroke-linejoin="round" stroke-miterlimit="10" stroke-width="8" d="m745.135,653.62l-60,0c-9.941,0 -18,-8.059 -18,-18l0,-272c0,-9.941 8.059,-18 18,-18l60,0c9.941,0 18,8.059 18,18l0,272c0,9.942 -8.059,18 -18,18z" id="svg_69"/>
    <path fill="#2d2d2d" stroke="#2d2d2d" stroke-linecap="round" stroke-linejoin="round" stroke-miterlimit="10" stroke-width="8" d="m737.818,668.802l-57.676,-16.538c-9.556,-2.74 -15.081,-12.708 -12.341,-22.264l74.973,-261.463c2.74,-9.556 12.708,-15.081 22.264,-12.341l57.676,16.538c9.556,2.74 15.081,12.708 12.341,22.264l-74.973,261.462c-2.74,9.556 -12.708,15.082 -22.264,12.342z" id="svg_70"/>
   </g>
   <path fill="#fff" d="m717.964,665.36l-48.541,-35.267c-8.043,-5.843 -9.825,-17.1 -3.982,-25.142l159.878,-220.053c5.843,-8.043 17.1,-9.825 25.142,-3.982l48.541,35.267c8.043,5.843 9.825,17.1 3.982,25.142l-159.877,220.053c-5.844,8.042 -17.1,9.825 -25.143,3.982z" id="svg_71"/>
   <path fill="none" stroke="#330e00" stroke-linecap="round" stroke-linejoin="round" stroke-miterlimit="10" stroke-width="8" d="m717.964,665.36l-48.541,-35.267c-8.043,-5.843 -9.825,-17.1 -3.982,-25.142l159.878,-220.053c5.843,-8.043 17.1,-9.825 25.142,-3.982l48.541,35.267c8.043,5.843 9.825,17.1 3.982,25.142l-159.877,220.053c-5.844,8.042 -17.1,9.825 -25.143,3.982z" id="svg_72"/>
   <path fill="none" stroke="#330e00" stroke-linecap="round" stroke-linejoin="round" stroke-miterlimit="10" stroke-width="8" d="m797.183,586.948l-77.666,-56.427l105.801,-145.623c5.843,-8.043 17.1,-9.825 25.142,-3.982l48.541,35.267c8.043,5.843 9.825,17.1 3.982,25.142l-105.8,145.623z" id="svg_73"/>
   <path fill="#8c6239" d="m874.77,480.158l-77.666,-56.427l28.214,-38.833c5.843,-8.043 17.1,-9.825 25.142,-3.982l48.541,35.267c8.043,5.843 9.825,17.1 3.982,25.142l-28.213,38.833z" id="svg_74"/>
   <path fill="none" stroke="#330e00" stroke-linecap="round" stroke-linejoin="round" stroke-miterlimit="10" stroke-width="8" d="m874.77,480.158l-77.666,-56.427l28.214,-38.833c5.843,-8.043 17.1,-9.825 25.142,-3.982l48.541,35.267c8.043,5.843 9.825,17.1 3.982,25.142l-28.213,38.833z" id="svg_75"/>
   <rect width="96" height="66" x="729.747" y="499.037" fill="#42210b" transform="rotate(36.002 777.733 532.006)" id="svg_76"/>
   <rect width="96" height="66" x="768.541" y="445.642" fill="#603813" transform="rotate(36.002 816.524 478.612)" id="svg_77"/>
   <rect width="96" height="66" x="768.541" y="445.642" fill="none" stroke="#330e00" stroke-linecap="round" stroke-linejoin="round" stroke-miterlimit="10" stroke-width="8" transform="rotate(36.002 816.524 478.612)" id="svg_78"/>
   <rect width="96" height="66" x="729.747" y="499.037" fill="none" stroke="#330e00" stroke-linecap="round" stroke-linejoin="round" stroke-miterlimit="10" stroke-width="8" transform="rotate(36.002 777.733 532.006)" id="svg_79"/>
   <circle cx="687.257" cy="614.62" r="8" fill="none" stroke="#330e00" stroke-linecap="round" stroke-linejoin="round" stroke-miterlimit="10" stroke-width="8" id="svg_80"/>
   <path fill="#2d2d2d" stroke="#2d2d2d" stroke-linecap="round" stroke-linejoin="round" stroke-miterlimit="10" stroke-width="8" d="m824.714,360.733l-57.676,-16.538c-9.556,-2.74 -19.524,2.785 -22.264,12.341l-74.973,261.463c-2.74,9.556 2.785,19.524 12.341,22.264l52.608,-3.013c0.465,0.133 4.919,0.276 5.385,0.37l4.783,0l7.68,-0.828c8.177,-0.881 14.995,-6.649 17.221,-14.567l67.237,-239.229c2.74,-9.555 -2.786,-19.523 -12.342,-22.263z" opacity="0.3" id="svg_81"/>
   <g id="svg_82">
    <path fill="#fff" d="m732.818,652.802l-57.676,-16.538c-9.556,-2.74 -15.081,-12.708 -12.341,-22.264l74.973,-261.463c2.74,-9.556 12.708,-15.081 22.264,-12.341l57.676,16.538c9.556,2.74 15.081,12.708 12.341,22.264l-74.973,261.462c-2.74,9.556 -12.708,15.082 -22.264,12.342z" id="svg_83"/>
    <path fill="none" stroke="#330e00" stroke-linecap="round" stroke-linejoin="round" stroke-miterlimit="10" stroke-width="8" d="m732.818,652.802l-57.676,-16.538c-9.556,-2.74 -15.081,-12.708 -12.341,-22.264l74.973,-261.463c2.74,-9.556 12.708,-15.081 22.264,-12.341l57.676,16.538c9.556,2.74 15.081,12.708 12.341,22.264l-74.973,261.462c-2.74,9.556 -12.708,15.082 -22.264,12.342z" id="svg_84"/>
    <path fill="#bd3f3a" d="m816.825,425.138l-92.281,-26.461l13.231,-46.141c2.74,-9.556 12.708,-15.081 22.264,-12.341l57.676,16.538c9.556,2.74 15.081,12.708 12.341,22.264l-13.231,46.141z" id="svg_85"/>
    <path fill="none" stroke="#330e00" stroke-linecap="round" stroke-linejoin="round" stroke-miterlimit="10" stroke-width="8" d="m780.441,552.024l-92.281,-26.461l49.615,-173.027c2.74,-9.556 12.708,-15.081 22.264,-12.341l57.676,16.538c9.556,2.74 15.081,12.708 12.341,22.264l-49.615,173.027z" id="svg_86"/>
    <rect width="96" height="66" x="713.588" y="410.629" fill="#a33500" transform="rotate(15.997 761.684 443.708)" id="svg_87"/>
    <rect width="96" height="66" x="713.588" y="410.629" fill="none" stroke="#330e00" stroke-linecap="round" stroke-linejoin="round" stroke-miterlimit="10" stroke-width="8" transform="rotate(15.997 761.684 443.708)" id="svg_88"/>
    <rect width="96" height="66" x="695.396" y="474.072" fill="#6d2300" transform="rotate(15.997 743.488 507.16)" id="svg_89"/>
    <rect width="96" height="66" x="695.396" y="474.072" fill="none" stroke="#330e00" stroke-linecap="round" stroke-linejoin="round" stroke-miterlimit="10" stroke-width="8" transform="rotate(15.997 743.488 507.16)" id="svg_90"/>
    <circle cx="686.609" cy="615.624" r="8" fill="none" stroke="#330e00" stroke-linecap="round" stroke-linejoin="round" stroke-miterlimit="10" stroke-width="8" id="svg_91"/>
   </g>
   <path fill="#2d2d2d" stroke="#2d2d2d" stroke-linecap="round" stroke-linejoin="round" stroke-miterlimit="10" stroke-width="8" d="m748.135,641.62l-60,0c-9.941,0 -18,-8.059 -18,-18l0,-272c0,-9.941 8.059,-18 18,-18l60,0c9.941,0 18,8.059 18,18l0,272c0,9.942 -8.059,18 -18,18z" opacity="0.3" id="svg_92"/>
   <g id="svg_93">
    <path fill="#fff" d="m740.135,637.62l-60,0c-9.941,0 -18,-8.059 -18,-18l0,-272c0,-9.941 8.059,-18 18,-18l60,0c9.941,0 18,8.059 18,18l0,272c0,9.942 -8.059,18 -18,18z" id="svg_94"/>
    <path fill="none" stroke="#330e00" stroke-linecap="round" stroke-linejoin="round" stroke-miterlimit="10" stroke-width="8" d="m740.135,637.62l-60,0c-9.941,0 -18,-8.059 -18,-18l0,-272c0,-9.941 8.059,-18 18,-18l60,0c9.941,0 18,8.059 18,18l0,272c0,9.942 -8.059,18 -18,18z" id="svg_95"/>
    <path fill="none" stroke="#330e00" stroke-linecap="round" stroke-linejoin="round" stroke-miterlimit="10" stroke-width="8" d="m758.135,527.62l-96,0l0,-180c0,-9.941 8.059,-18 18,-18l60,0c9.941,0 18,8.059 18,18l0,180z" id="svg_96"/>
    <path fill="#f99" d="m758.135,395.62l-96,0l0,-48c0,-9.941 8.059,-18 18,-18l60,0c9.941,0 18,8.059 18,18l0,48z" id="svg_97"/>
    <path fill="none" stroke="#330e00" stroke-linecap="round" stroke-linejoin="round" stroke-miterlimit="10" stroke-width="8" d="m758.135,395.62l-96,0l0,-48c0,-9.941 8.059,-18 18,-18l60,0c9.941,0 18,8.059 18,18l0,48z" id="svg_98"/>
    <rect width="96" height="66" x="662.135" y="395.62" fill="red" id="svg_99"/>
    <rect width="96" height="66" x="662.135" y="395.62" fill="#f33" stroke="#330e00" stroke-linecap="round" stroke-linejoin="round" stroke-miterlimit="10" stroke-width="8" id="svg_100"/>
    <rect width="96" height="66" x="662.135" y="461.62" fill="#bf0000" id="svg_101"/>
    <rect width="96" height="66" x="662.135" y="461.62" fill="none" stroke="#330e00" stroke-linecap="round" stroke-linejoin="round" stroke-miterlimit="10" stroke-width="8" id="svg_102"/>
    <circle cx="685.468" cy="614.62" r="8" fill="none" stroke="#330e00" stroke-linecap="round" stroke-linejoin="round" stroke-miterlimit="10" stroke-width="8" id="svg_103"/>
    <path fill="#330e00" d="m676.294,544.228l-1.702,0l0,2.905l-0.845,0l0,-6.815l2.547,0c1.955,0 2.848,0.839 2.848,1.96c0,1.101 -0.869,1.95 -2.848,1.95zm0,-0.585c1.424,0 1.979,-0.527 1.979,-1.365c0,-0.878 -0.556,-1.385 -1.979,-1.385l-1.702,0l0,2.75l1.702,0zm9.316,1.872l-3.838,0l-0.736,1.618l-0.894,0l3.078,-6.728l0.954,0l3.065,6.728l-0.894,0l-0.735,-1.618zm-1.919,-4.252l-1.665,3.687l3.331,0l-1.666,-3.687zm11.429,-0.946l0,6.815l-0.845,0l-4.671,-5.733l0,5.733l-0.845,0l0,-6.815l0.845,0l4.671,5.724l0,-5.724l0.845,0zm1.484,0l5.54,0l0,0.565l-2.342,0l0,6.25l-0.845,0l0,-6.25l-2.354,0l0,-0.565l0.001,0zm10.837,6.884c-2.366,0 -4.177,-1.434 -4.177,-3.481c0,-2.037 1.811,-3.48 4.177,-3.48c2.377,0 4.176,1.443 4.176,3.48c0,2.048 -1.799,3.481 -4.176,3.481zm0,-0.595c1.87,0 3.307,-1.102 3.307,-2.887c0,-1.784 -1.437,-2.876 -3.307,-2.876c-1.871,0 -3.308,1.092 -3.308,2.876c0.001,1.786 1.437,2.887 3.308,2.887zm12.249,-6.289l0,6.815l-0.845,0l-4.671,-5.733l0,5.733l-0.845,0l0,-6.815l0.845,0l4.671,5.724l0,-5.724l0.845,0zm6.493,0.556l-3.561,0l0,2.545l3.198,0l0,0.565l-3.198,0l0,2.584l3.561,0l0,0.565l-4.405,0l0,-6.825l4.405,0l0,0.566z" id="svg_104"/>
    <g id="svg_105">
     <path fill="#330e00" d="m728.373,540.199l1.563,0l0,0.238l-0.63,0l0,2.006l-0.301,0l0,-2.006l-0.633,0l0,-0.238l0.001,0zm1.979,0.017l0.324,0l0.848,1.841l0.848,-1.841l0.321,0l0,2.228l-0.301,0l0,-1.661l-0.762,1.661l-0.212,0l-0.765,-1.664l0,1.664l-0.302,0l0,-2.228l0.001,0z" id="svg_106"/>
    </g>
   </g>
  </g>
 </g>

</svg>